<?xml version="1.0" encoding="UTF-8" standalone="no"?>
<svg
   viewBox="0 0 512 512"
   style="height: 512px; width: 512px;"
   version="1.1"
   id="svg6"
   sodipodi:docname="tts.svg"
   inkscape:version="1.1.1 (3bf5ae0d25, 2021-09-20)"
   xmlns:inkscape="http://www.inkscape.org/namespaces/inkscape"
   xmlns:sodipodi="http://sodipodi.sourceforge.net/DTD/sodipodi-0.dtd"
   xmlns="http://www.w3.org/2000/svg"
   xmlns:svg="http://www.w3.org/2000/svg">
  <defs
     id="defs10" />
  <sodipodi:namedview
     id="namedview8"
     pagecolor="#505050"
     bordercolor="#eeeeee"
     borderopacity="1"
     inkscape:pageshadow="0"
     inkscape:pageopacity="0"
     inkscape:pagecheckerboard="0"
     showgrid="false"
     inkscape:zoom="1.7050781"
     inkscape:cx="256"
     inkscape:cy="256"
     inkscape:window-width="2560"
     inkscape:window-height="1377"
     inkscape:window-x="1072"
     inkscape:window-y="251"
     inkscape:window-maximized="1"
     inkscape:current-layer="svg6" />
  <g
     class=""
     transform="matrix(1.1228374,0,0,1.1228374,-31.446366,-31.446366)"
     id="g4">
    <path
       d="m 458.915,307.705 c 0,62.63 -54,91.32 -91.34,91.34 -41.64,0 -73.1,-18.86 -91.83,-34.26 2.47,50.95 14.53,87.35 68.65,116 h -176.79 c 54.12,-28.65 66.18,-65.05 68.65,-116 -18.73,15.39 -50.2,34.28 -91.83,34.26 -37.29,0 -91.34,-28.71 -91.34,-91.34 0,-114.47 80.64,-83.32 202.91,-276.49 122.28,193.17 202.92,162.03 202.92,276.49 z"
       fill="#bd10e0"
       fill-opacity="1"
       transform="matrix(0.8,0,0,0.8,51.2,51.2)"
       id="path2" />
  </g>
</svg>
